<?xml version="1.0" standalone="no"?>
<!DOCTYPE svg PUBLIC "-//W3C//DTD SVG 20010904//EN"
 "http://www.w3.org/TR/2001/REC-SVG-20010904/DTD/svg10.dtd">
<svg version="1.0" xmlns="http://www.w3.org/2000/svg"
 width="200.000000pt" height="200.000000pt" viewBox="0 0 200.000000 200.000000"
 preserveAspectRatio="xMidYMid meet">
<metadata>
Created by potrace 1.14, written by Peter Selinger 2001-2017
</metadata>
<g transform="translate(0.000000,200.000000) scale(0.100000,-0.100000)"
fill="#000000" stroke="none">
<path d="M302 1617 c-27 -84 -83 -182 -141 -248 l-40 -46 16 -44 c9 -24 19
-46 21 -49 2 -3 24 17 48 45 l44 49 0 -252 0 -252 50 0 50 0 0 334 c0 363 -2
347 61 469 l19 38 -35 14 c-61 26 -68 22 -93 -58z"/>
<path d="M516 1679 c-2 -8 -9 -34 -16 -59 -15 -59 -77 -184 -101 -206 -27 -24
-24 -35 16 -67 l35 -27 27 39 c16 21 36 53 45 70 16 29 21 31 72 31 l54 0 4
-247 c2 -137 0 -258 -4 -270 -7 -20 -14 -23 -62 -23 l-54 0 18 -47 c10 -26 23
-49 30 -51 29 -10 122 11 147 32 l26 23 -2 291 -2 292 80 0 81 0 -10 -26 c-6
-15 -19 -39 -30 -54 l-20 -28 28 -10 c15 -5 35 -13 44 -17 14 -5 26 11 63 86
l47 92 -25 25 -25 24 -202 -1 -202 -2 6 28 c4 15 14 41 22 57 18 36 9 46 -45
53 -29 4 -42 2 -45 -8z"/>
<path d="M1075 875 c-330 -483 -535 -791 -531 -800 3 -8 12 -15 20 -15 17 0
1081 1552 1081 1577 0 65 -47 3 -570 -762z"/>
<path d="M847 1294 c-24 -13 -28 -20 -22 -42 12 -50 125 -272 138 -272 7 0 26
13 41 29 l27 28 -50 88 c-28 49 -58 110 -67 137 -17 52 -24 55 -67 32z"/>
<path d="M485 1248 c-22 -69 -68 -158 -101 -197 -14 -17 -25 -33 -23 -35 33
-24 69 -46 78 -46 22 0 151 256 151 299 0 9 -53 31 -75 31 -7 0 -20 -23 -30
-52z"/>
<path d="M1582 980 c-26 -34 -88 -126 -138 -206 -51 -80 -101 -152 -113 -160
-12 -8 -21 -23 -21 -32 0 -9 -16 -53 -35 -98 -46 -106 -35 -144 40 -144 28 0
40 14 90 109 l40 76 55 6 c30 4 80 9 110 12 l55 5 29 -80 c16 -44 41 -94 56
-111 25 -28 31 -30 56 -22 46 17 51 51 21 142 -23 71 -79 308 -108 460 -12 66
-37 103 -69 103 -12 0 -38 -23 -68 -60z m47 -254 c6 -32 8 -62 5 -67 -6 -11
-117 -12 -112 -1 21 48 82 142 88 135 5 -4 13 -34 19 -67z"/>
</g>
</svg>
